<?xml version="1.0" encoding="UTF-8" standalone="no"?>
<!-- Created with Inkscape (http://www.inkscape.org/) -->

<svg
   xmlns:dc="http://purl.org/dc/elements/1.1/"
   xmlns:cc="http://creativecommons.org/ns#"
   xmlns:rdf="http://www.w3.org/1999/02/22-rdf-syntax-ns#"
   xmlns:svg="http://www.w3.org/2000/svg"
   xmlns="http://www.w3.org/2000/svg"
   xmlns:sodipodi="http://sodipodi.sourceforge.net/DTD/sodipodi-0.dtd"
   xmlns:inkscape="http://www.inkscape.org/namespaces/inkscape"
   width="384.39191"
   height="362.66412"
   id="svg2"
   version="1.1"
   inkscape:version="0.48.2 r9819"
   sodipodi:docname="pedpracticelogo.svg"
   inkscape:export-filename="C:\Users\Curuinor\Dropbox\Projects\pedpractice\pedpracticelogoico100.png"
   inkscape:export-xdpi="23.413605"
   inkscape:export-ydpi="23.413605">
  <defs
     id="defs4">
    <filter
       inkscape:collect="always"
       id="filter3798"
       color-interpolation-filters="sRGB">
      <feGaussianBlur
         inkscape:collect="always"
         stdDeviation="3.5641986"
         id="feGaussianBlur3800" />
    </filter>
  </defs>
  <sodipodi:namedview
     id="base"
     pagecolor="#ffffff"
     bordercolor="#666666"
     borderopacity="1.0"
     inkscape:pageopacity="0.0"
     inkscape:pageshadow="2"
     inkscape:zoom="1.4"
     inkscape:cx="213.74986"
     inkscape:cy="157.13034"
     inkscape:document-units="px"
     inkscape:current-layer="layer1"
     showgrid="false"
     inkscape:window-width="1360"
     inkscape:window-height="744"
     inkscape:window-x="0"
     inkscape:window-y="24"
     inkscape:window-maximized="1"
     fit-margin-top="0"
     fit-margin-left="0"
     fit-margin-right="0"
     fit-margin-bottom="0" />
  <metadata
     id="metadata7">
    <rdf:RDF>
      <cc:Work
         rdf:about="">
        <dc:format>image/svg+xml</dc:format>
        <dc:type
           rdf:resource="http://purl.org/dc/dcmitype/StillImage" />
        <dc:title></dc:title>
      </cc:Work>
    </rdf:RDF>
  </metadata>
  <g
     inkscape:label="Layer 1"
     inkscape:groupmode="layer"
     id="layer1"
     transform="translate(0.02127134,-10.394993)">
    <g
       id="g3802">
      <g
         transform="translate(-192.14285,-403.57143)"
         style="filter:url(#filter3798)"
         id="g3787">
        <path
           sodipodi:type="arc"
           style="fill:#0e75cc;fill-opacity:1;fill-rule:evenodd;stroke:none"
           id="path2996"
           sodipodi:cx="57.857143"
           sodipodi:cy="540.93359"
           sodipodi:rx="27.857143"
           sodipodi:ry="28.571428"
           d="m 85.714287,540.93359 c 0,15.77957 -12.472068,28.57143 -27.857144,28.57143 C 42.472068,569.50502 30,556.71316 30,540.93359 c 0,-15.77956 12.472068,-28.57142 27.857143,-28.57142 15.385076,0 27.857144,12.79186 27.857144,28.57142 z"
           transform="matrix(1.1538462,0,0,1.1,190.38461,-101.23622)" />
        <path
           transform="matrix(1.1538462,0,0,1.1,453.95604,-101.95051)"
           d="m 85.714287,540.93359 c 0,15.77957 -12.472068,28.57143 -27.857144,28.57143 C 42.472068,569.50502 30,556.71316 30,540.93359 c 0,-15.77956 12.472068,-28.57142 27.857143,-28.57142 15.385076,0 27.857144,12.79186 27.857144,28.57142 z"
           sodipodi:ry="28.571428"
           sodipodi:rx="27.857143"
           sodipodi:cy="540.93359"
           sodipodi:cx="57.857143"
           id="path3000"
           style="fill:#0e75cc;fill-opacity:1;fill-rule:evenodd;stroke:none"
           sodipodi:type="arc" />
        <path
           style="fill:#ff23e0;fill-opacity:1;stroke:none"
           d="m 200.71429,578.07647 0,0 c 0,0 2.04421,-18.95957 9.28571,-22.85714 8.55234,-4.6031 21.81533,-1.26327 28.57143,5.71428 11.08186,11.44511 1.84953,32.47062 4.28571,48.21429 3.08946,19.96543 2.2897,42.75467 10,61.42857 8.05082,19.49861 23.87937,34.6078 40,48.21429 27.58538,23.28321 92.14287,32.85714 92.14287,32.85714 0,0 -66.30874,5.26863 -99.28572,-11.07142 C 267.15848,731.3821 247.36709,721.11559 235,704.50505 c -16.7281,-22.46793 -25.36027,-43.29132 -31.07143,-70.7143 -3.84606,-18.46745 -3.21428,-55.71428 -3.21428,-55.71428 z"
           id="path3002"
           inkscape:connector-curvature="0"
           sodipodi:nodetypes="ssssssscssss" />
        <path
           style="fill:#ff23e0;fill-opacity:1;stroke:none"
           d="m 416.42857,423.07647 c 3.43333,-1.54421 8.8814,0.28314 10.71429,3.57143 -7.12701,82.07461 -28.06017,109.42295 -33.57143,167.14285 -3.26171,34.1601 3.80638,68.13455 -5.35715,95.71429 -8.96106,11.86026 -9.62769,13.34847 -26.78571,5 -11.80838,-5.74553 -14.95836,-11.8872 -19.28571,-24.28571 -11.05575,-31.6764 2.84379,-67.56661 11.42857,-100.00001 13.64736,-51.55987 29.57236,-96.33657 62.85714,-147.14285 z"
           id="path3004"
           inkscape:connector-curvature="0"
           sodipodi:nodetypes="ccscsscc" />
        <path
           style="fill:#ff23e0;fill-opacity:1;stroke:none"
           d="m 519.28571,571.6479 c 10.58268,-9.91376 28.50831,-27.35393 41.42858,-19.28572 10.89848,21.35348 7.91099,51.7863 1.42857,76.42857 -8.58084,32.61918 -25.77416,65.24553 -51.42857,87.14286 -26.66796,22.76244 -97.85715,38.57143 -97.85715,38.57143 0,0 53.77532,-29.52364 73.57143,-52.14286 17.53496,-20.0356 31.69239,-44.65296 37.14286,-70.71428 4.10466,-19.62632 4.11638,-40.21921 -4.28572,-60 z"
           id="path3006"
           inkscape:connector-curvature="0"
           sodipodi:nodetypes="ccsscssc" />
      </g>
    </g>
  </g>
</svg>
